<svg width="93" height="26" viewBox="0 0 93 26" fill="none" xmlns="http://www.w3.org/2000/svg">
<g clip-path="url(#clip0_161_4060)">
<path d="M20.1637 20.6493L16.8075 23.6354V13.24L20.1637 10.5004V20.6493ZM10.1245 19.0996L15.4494 14.4693V18.6271L10.1245 23.352L3.68323 17.6821V23.6354L-0.00976562 20.1391V10.2169L10.1245 19.0996ZM20.1455 8.02458L12.906 14.4314L12.9013 14.4282L10.1245 17.0207L-0.00976562 8.04344V3.03516L10.2741 12.0273L20.2545 3.03516L20.1455 8.02458Z" fill="black"/>
<path d="M20.1648 20.6507L20.2809 20.7922L20.3435 20.7366V20.6507H20.1648ZM16.8085 23.6368H16.6298V24.0407L16.9246 23.7784L16.8085 23.6368ZM16.8085 13.2413L16.6983 13.0948L16.6298 13.1507V13.2413H16.8085ZM20.1648 10.5018H20.3435V10.1193L20.0547 10.3552L20.1648 10.5018ZM10.1256 19.101L10.0105 19.2434L10.1251 19.3439L10.2401 19.2439L10.1256 19.101ZM15.4504 14.4706H15.6291V14.0726L15.3358 14.3277L15.4504 14.4706ZM15.4504 18.6285L15.5663 18.7702L15.6291 18.7145V18.6285H15.4504ZM10.1256 23.3534L10.0102 23.4955L10.126 23.5975L10.2415 23.495L10.1256 23.3534ZM3.68428 17.6835L3.79964 17.5413L3.50552 17.2824V17.6835H3.68428ZM3.68428 23.6368L3.56402 23.7746L3.86304 24.0576V23.6368H3.68428ZM-0.00874826 20.1405H-0.1875V20.2228L-0.128977 20.2782L-0.00874826 20.1405ZM-0.00874826 10.2183L0.106369 10.0758L-0.1875 9.81827V10.2183H-0.00874826ZM20.1466 8.02597L20.2624 8.16784L20.3235 8.11372L20.3253 8.03019L20.1466 8.02597ZM12.907 14.4328L12.8078 14.5878L12.92 14.6656L13.0227 14.5747L12.907 14.4328ZM12.9024 14.4296L13.0015 14.2747L12.8862 14.1946L12.7831 14.291L12.9024 14.4296ZM10.1256 17.0221L10.0098 17.1639L10.1287 17.2692L10.2449 17.1607L10.1256 17.0221ZM-0.00874826 8.04483H-0.1875V8.13088L-0.124546 8.18663L-0.00874826 8.04483ZM-0.00874826 3.03653L0.106186 2.89393L-0.1875 2.63713V3.03653H-0.00874826ZM10.2751 12.0287L10.1602 12.1713L10.2768 12.2733L10.3921 12.1695L10.2751 12.0287ZM20.2556 3.03653L20.4343 3.04076L20.4433 2.62109L20.1387 2.89572L20.2556 3.03653ZM20.1648 20.6507L20.0486 20.5091L16.6924 23.4952L16.8085 23.6368L16.9246 23.7784L20.2809 20.7922L20.1648 20.6507ZM16.8085 23.6368H16.9872V13.2413H16.8085H16.6298V23.6368H16.8085ZM16.8085 13.2413L16.9188 13.3879L20.2749 10.6483L20.1648 10.5018L20.0547 10.3552L16.6983 13.0948L16.8085 13.2413ZM20.1648 10.5018H19.986V20.6507H20.1648H20.3435V10.5018H20.1648ZM10.1256 19.101L10.2401 19.2439L15.5649 14.6136L15.4504 14.4706L15.3358 14.3277L10.011 18.958L10.1256 19.101ZM15.4504 14.4706H15.2716V18.6285H15.4504H15.6291V14.4706H15.4504ZM15.4504 18.6285L15.3345 18.4868L10.0096 23.2116L10.1256 23.3534L10.2415 23.495L15.5663 18.7702L15.4504 18.6285ZM10.1256 23.3534L10.2409 23.2111L3.79964 17.5413L3.68428 17.6835L3.56892 17.8257L10.0102 23.4955L10.1256 23.3534ZM3.68428 17.6835H3.50552V23.6368H3.68428H3.86304V17.6835H3.68428ZM3.68428 23.6368L3.80447 23.499L0.11148 20.0027L-0.00874826 20.1405L-0.128977 20.2782L3.56402 23.7746L3.68428 23.6368ZM-0.00874826 20.1405H0.170003V10.2183H-0.00874826H-0.1875V20.1405H-0.00874826ZM-0.00874826 10.2183L-0.123827 10.3607L10.0105 19.2434L10.1256 19.101L10.2407 18.9585L0.106369 10.0758L-0.00874826 10.2183ZM20.1466 8.02597L20.0311 7.88409L12.7912 14.291L12.907 14.4328L13.0227 14.5747L20.2624 8.16784L20.1466 8.02597ZM12.907 14.4328L13.0061 14.2779L13.0015 14.2747L12.9024 14.4296L12.8032 14.5846L12.8078 14.5878L12.907 14.4328ZM12.9024 14.4296L12.7831 14.291L10.0063 16.8834L10.1256 17.0221L10.2449 17.1607L13.0217 14.5683L12.9024 14.4296ZM10.1256 17.0221L10.2414 16.8802L0.107043 7.90302L-0.00874826 8.04483L-0.124546 8.18663L10.0098 17.1639L10.1256 17.0221ZM-0.00874826 8.04483H0.170003V3.03653H-0.00874826H-0.1875V8.04483H-0.00874826ZM-0.00874826 3.03653L-0.12369 3.17913L10.1602 12.1713L10.2751 12.0287L10.39 11.8861L0.106186 2.89393L-0.00874826 3.03653ZM10.2751 12.0287L10.3921 12.1695L20.3725 3.17734L20.2556 3.03653L20.1387 2.89572L10.1581 11.8879L10.2751 12.0287ZM20.2556 3.03653L20.0768 3.0323L19.9678 8.02175L20.1466 8.02597L20.3253 8.03019L20.4343 3.04076L20.2556 3.03653Z" fill="black"/>
<path d="M27.7317 17.5876H26.3242V8.94727H27.7317L30.4105 15.8264L33.0892 8.94727H34.5194V17.5876H33.1119V14.9281C33.1119 13.1906 33.1119 12.6823 33.1914 12.0677L31.0802 17.5876H29.7408L27.6409 12.0795C27.7204 12.5996 27.7317 13.4152 27.7317 14.4908V17.5876ZM37.525 17.5876H36.0154L39.0119 8.94727H40.4989L43.4955 17.5876H41.9631L41.2934 15.59H38.1947L37.525 17.5876ZM39.5681 11.524L38.626 14.3135H40.8734L39.92 11.524C39.8519 11.2994 39.7725 11.0394 39.7497 10.862C39.7157 11.0275 39.6476 11.2876 39.5681 11.524ZM46.1086 17.5876L42.9759 8.94727H44.5195L46.3357 13.9234C46.5172 14.4435 46.6762 14.9517 46.8577 15.6491C47.0621 14.8926 47.2323 14.3607 47.3912 13.9234L49.1847 8.94727H50.6943L47.6069 17.5876H46.1086ZM57.3366 17.5876H52.1834V8.94727H57.3366V10.342H53.6363V12.5641H56.9507V13.8998H53.6363V16.1928H57.3366V17.5876ZM60.8187 8.94727V16.1928H64.2919V17.5876H59.3659V8.94727H60.8187ZM67.3802 8.94727V16.1928H70.8534V17.5876H65.9272V8.94727H67.3802ZM73.9423 8.94727V17.5876H72.4893V8.94727H73.9423ZM76.1789 14.4317V8.94727H77.6318V14.3371C77.6318 15.5782 78.2782 16.2637 79.4593 16.2637C80.639 16.2637 81.2978 15.5663 81.2978 14.3371V8.94727H82.7501V14.4317C82.7501 16.4528 81.4789 17.7294 79.4593 17.7294C77.4501 17.7294 76.1789 16.4647 76.1789 14.4317ZM86.3991 17.5876H84.9919V8.94727H86.3991L89.0782 15.8264L91.7566 8.94727H93.1867V17.5876H91.7795V14.9281C91.7795 13.1906 91.7795 12.6823 91.8593 12.0677L89.7475 17.5876H88.4083L86.3083 12.0795C86.388 12.5996 86.3991 13.4152 86.3991 14.4908V17.5876Z" fill="black"/>
</g>
<defs>
<clipPath id="clip0_161_4060">
<rect width="93" height="25.651" fill="white"/>
</clipPath>
</defs>
</svg>
