<svg width="173" height="58" viewBox="0 0 173 58" fill="none" xmlns="http://www.w3.org/2000/svg">
<path d="M26.0752 0C26.0996 0 31.4731 4.05301 38.0254 9.00293C44.5777 13.9528 49.9904 18.0489 50.0537 18.1074C50.117 18.166 50.2091 18.3029 50.2578 18.4102C50.3308 18.5661 50.3358 18.6438 50.3018 18.7852C50.2677 18.912 50.1754 19.0392 50.0195 19.1758C49.8879 19.2928 49.5666 19.5071 49.2988 19.6582C49.0358 19.8094 43.7739 22.2623 37.6113 25.1055C31.4488 27.9486 26.3236 30.3137 26.041 30.4551V40.0234C26.041 45.2742 26.0558 49.5802 26.0752 49.6113C26.0996 49.6211 26.8262 49.3335 27.6982 48.9775C28.5704 48.6166 30.4017 47.8606 31.7656 47.2949C33.1297 46.7292 35.2832 45.7981 36.54 45.2178C37.7969 44.6423 39.3119 43.9548 39.9014 43.6865C40.4908 43.4183 41.2557 43.0721 41.6064 42.9111C41.9572 42.7551 42.4488 42.5008 42.7021 42.3496C42.9554 42.1985 43.3501 41.9256 43.5791 41.75C43.8032 41.5744 44.096 41.2967 44.2324 41.1357C44.3639 40.9749 44.5441 40.6873 44.6367 40.502C44.7585 40.2484 44.8067 40.072 44.8213 39.8184C44.8359 39.6275 44.88 38.8969 44.9189 38.1855C44.9627 37.4752 44.992 36.8904 44.9824 36.8877C44.9727 36.8828 43.7299 37.4491 42.2148 38.1465C40.7017 38.8381 39.4509 39.3982 39.4336 39.3945C39.419 39.3848 37.9479 38.3802 36.1602 37.1611C34.3847 35.9471 32.9422 34.936 32.9492 34.9082C32.9687 34.8936 36.4815 33.2739 40.7539 31.3184C45.0262 29.3579 48.6801 27.7099 48.8652 27.6562C49.0504 27.5978 49.3716 27.5341 49.5713 27.5098C49.7905 27.4805 50.0492 27.4805 50.2148 27.5098C50.3705 27.5342 50.5793 27.5929 50.6768 27.6465C50.7791 27.6953 50.9357 27.8224 51.0234 27.9248C51.1062 28.0273 51.2179 28.2122 51.2666 28.334C51.3445 28.5388 51.3496 29.0216 51.3643 35.4297C51.374 40.3162 51.3642 42.4281 51.3252 42.7207C51.2911 42.9499 51.2127 43.3451 51.1494 43.5986C51.0812 43.8522 50.9303 44.2905 50.8135 44.5732C50.6917 44.8561 50.4625 45.2952 50.2969 45.5488C50.1313 45.8023 49.8639 46.1535 49.6982 46.3242C49.5375 46.4949 49.279 46.715 49.1328 46.8174C48.9809 46.9175 43.7416 49.3206 37.4902 52.1572C31.2351 54.9906 26.08 57.3017 26.041 57.2871C25.9911 57.2646 24.4483 56.171 19.2939 52.4688L19.2451 25.7881L16.1426 23.6719C14.4326 22.5063 13.0097 21.5557 12.9854 21.5557C12.9515 21.5886 12.9315 26.148 12.9121 48.3682L6.55469 44.0615V17.1416L3.33008 14.9473C1.56376 13.7392 0.0696063 12.721 0.0126953 12.6797C-0.0749934 12.6114 0.144013 12.4943 6.2627 9.50977L16.1133 16.1758C21.5211 19.8286 25.9789 22.8319 26.041 22.8574C26.08 22.8672 26.8262 22.5454 27.6982 22.1357C28.5701 21.731 29.2959 21.3847 29.3154 21.3701C29.3339 21.3498 28.7007 20.7838 27.9023 20.1162C27.1084 19.4433 26.3625 18.8101 26.0361 18.5078L26.041 14.835C26.041 12.8302 26.0558 11.1732 26.0752 11.1484C26.0996 11.1387 28.2532 12.7623 30.8643 14.7617C33.4754 16.7612 35.6485 18.4053 35.6875 18.4199C35.7299 18.4328 36.4691 18.1166 37.3291 17.7227C38.1962 17.3228 38.9023 16.9853 38.8975 16.9707C38.8669 16.9335 35.9557 14.7672 26.0654 7.43262L26.0508 3.71582C26.0459 1.68255 26.0559 0.0162178 26.0752 0ZM121.744 16.5371C121.851 16.5371 122.002 16.5763 122.085 16.625C122.163 16.6738 122.261 16.7813 122.295 16.8545C122.343 16.9726 122.353 19.8464 122.339 31.2842C122.329 44.8766 122.324 45.5973 122.236 46.1094C122.188 46.4068 122.076 46.9291 121.988 47.2803C121.901 47.6265 121.749 48.1341 121.646 48.4023C121.544 48.6705 121.369 49.0746 121.257 49.3037C121.145 49.5328 120.897 49.9476 120.707 50.2305C120.522 50.5133 120.205 50.928 120.005 51.1572C119.805 51.3863 119.499 51.6935 119.328 51.8447C119.158 51.991 118.884 52.216 118.724 52.3379C118.563 52.4598 118.256 52.6692 118.042 52.8008C117.828 52.9373 117.443 53.1515 117.189 53.2783C116.936 53.4051 116.483 53.6056 116.19 53.7178C115.893 53.8348 115.367 54.005 115.021 54.0977C114.671 54.1952 114.145 54.3223 113.853 54.376C113.555 54.4296 113.043 54.5127 112.707 54.5518C112.371 54.5908 111.65 54.6397 111.1 54.6543C110.52 54.6689 109.755 54.6591 109.272 54.625C108.815 54.5957 108.138 54.5224 107.763 54.4688C107.388 54.4151 106.837 54.3173 106.545 54.249C106.248 54.1856 105.809 54.0585 105.57 53.9805C105.327 53.8975 104.942 53.7319 104.279 53.4004V48.1338L104.605 48.3047C104.79 48.3973 105.171 48.5528 105.458 48.6455C105.75 48.7382 106.253 48.8702 106.579 48.9336C106.91 49.0019 107.52 49.0899 107.934 49.1338C108.494 49.1972 108.947 49.2119 109.688 49.1924C110.384 49.1777 110.856 49.1386 111.246 49.0703C111.553 49.0118 112.002 48.9091 112.245 48.8408C112.484 48.7725 112.902 48.6062 113.17 48.4795C113.438 48.3528 113.798 48.1532 113.974 48.0361C114.149 47.9191 114.447 47.6707 114.632 47.4805C114.822 47.2903 115.061 47.0028 115.168 46.8418C115.27 46.6809 115.421 46.3923 115.499 46.207C115.582 46.0168 115.684 45.6656 115.732 45.4268C115.801 45.105 115.825 44.7732 115.825 43.4033H115.703C115.611 43.4035 115.543 43.4624 115.416 43.6572C115.323 43.7987 115.089 44.0716 114.89 44.2568C114.695 44.447 114.325 44.7395 114.071 44.9102C113.818 45.0808 113.477 45.2852 113.316 45.3633C113.156 45.4461 112.839 45.588 112.61 45.6807C112.381 45.7733 111.997 45.9004 111.758 45.9639C111.514 46.0321 111.134 46.1192 110.905 46.1631C110.667 46.207 110.091 46.251 109.541 46.2656C108.952 46.2851 108.406 46.2705 108.104 46.2363C107.836 46.2022 107.398 46.1347 107.13 46.0811C106.862 46.0225 106.345 45.8807 105.984 45.7637C105.624 45.6417 105.064 45.4177 104.742 45.2617C104.421 45.1106 103.973 44.8612 103.744 44.7197C103.515 44.5783 103.121 44.3005 102.867 44.1055C102.614 43.9153 102.18 43.525 101.907 43.2471C101.63 42.974 101.294 42.6033 101.152 42.4277C101.016 42.2522 100.753 41.8815 100.567 41.5986C100.382 41.3158 100.104 40.8238 99.9434 40.502C99.7875 40.1801 99.574 39.6774 99.4668 39.3799C99.3596 39.0824 99.2029 38.5699 99.125 38.2334C99.0422 37.897 98.9403 37.4146 98.9014 37.1611C98.8624 36.9075 98.8036 36.4342 98.7744 36.1123C98.7501 35.7905 98.7256 35.2398 98.7256 34.8936C98.7256 34.5424 98.7501 33.9957 98.7744 33.6738C98.8036 33.352 98.8722 32.8159 98.9258 32.4795C98.9842 32.143 99.1057 31.5963 99.1934 31.2598C99.2859 30.9234 99.4613 30.397 99.583 30.0898C99.7048 29.7826 99.9193 29.3092 100.061 29.041C100.202 28.7728 100.451 28.3532 100.611 28.1143C100.772 27.8753 101.044 27.4997 101.215 27.2852C101.385 27.0706 101.712 26.7097 101.941 26.4805C102.17 26.2513 102.546 25.9196 102.77 25.7441C102.999 25.5637 103.369 25.3005 103.598 25.1494C103.827 25.0031 104.251 24.7596 104.548 24.6133C104.84 24.4621 105.293 24.2616 105.546 24.1641C105.799 24.0665 106.248 23.9257 106.545 23.8477C106.837 23.7696 107.266 23.6718 107.495 23.6328C107.724 23.5889 108.206 23.5351 108.566 23.5059C109 23.4766 109.448 23.4766 109.892 23.5059C110.262 23.5351 110.797 23.5987 111.085 23.6572C111.377 23.7109 111.84 23.8331 112.123 23.9258C112.405 24.0184 112.853 24.1985 113.121 24.3301C113.389 24.4568 113.803 24.6906 114.042 24.8516C114.286 25.0076 114.646 25.2961 114.846 25.4863C115.05 25.6765 115.304 25.9592 115.411 26.1104C115.552 26.3102 115.635 26.3886 115.825 26.3838V23.2617L118.568 19.9561C120.079 18.137 121.364 16.6201 121.428 16.5908C121.496 16.5616 121.637 16.5371 121.744 16.5371ZM131.259 7.99805C131.39 7.99809 131.473 8.03264 131.683 8.25195L131.692 17.3174C131.702 22.3014 131.722 26.3838 131.741 26.3838C131.766 26.3826 131.868 26.2607 131.975 26.1104C132.082 25.9592 132.301 25.7108 132.462 25.5596C132.623 25.4085 132.895 25.1835 133.07 25.0615C133.246 24.9347 133.573 24.7254 133.802 24.5986C134.031 24.467 134.445 24.2664 134.728 24.1543C135.01 24.0422 135.448 23.8964 135.701 23.8232C135.954 23.755 136.359 23.6669 136.603 23.623C136.841 23.584 137.324 23.5302 137.675 23.5107C138.021 23.4913 138.61 23.4912 138.976 23.5156C139.346 23.5352 139.939 23.6134 140.29 23.6816C140.646 23.7499 141.192 23.8917 141.499 23.9941C141.806 24.0966 142.288 24.2815 142.57 24.4033C142.853 24.5301 143.311 24.7688 143.589 24.9346C143.866 25.1003 144.314 25.4026 144.587 25.6074C144.855 25.8122 145.279 26.178 145.518 26.4121C145.761 26.6509 146.092 27.0119 146.253 27.2119C146.419 27.4118 146.702 27.7972 146.882 28.0654C147.062 28.3337 147.369 28.8804 147.563 29.2852C147.763 29.6849 147.997 30.2454 148.095 30.5283C148.187 30.8112 148.333 31.3139 148.411 31.6504C148.494 31.9868 148.592 32.4984 148.636 32.7959C148.68 33.0934 148.733 33.6841 148.753 34.1133C148.777 34.5425 148.777 35.2448 148.753 35.6738C148.733 36.1029 148.68 36.6928 148.636 36.9902C148.592 37.2877 148.494 37.8002 148.411 38.1367C148.333 38.4732 148.187 38.9751 148.095 39.2578C147.997 39.5407 147.763 40.0972 147.563 40.502C147.369 40.9018 147.062 41.4526 146.882 41.7207C146.702 41.9889 146.419 42.3743 146.253 42.5742C146.092 42.7742 145.781 43.1107 145.566 43.3203C145.352 43.5348 145.011 43.842 144.812 44.0029C144.612 44.1638 144.237 44.4318 143.983 44.6025C143.73 44.7683 143.301 45.0177 143.033 45.1543C142.765 45.2957 142.317 45.4953 142.034 45.6025C141.752 45.7098 141.235 45.8761 140.89 45.9639C140.539 46.0565 139.993 46.1631 139.672 46.207C139.209 46.2753 138.863 46.2851 138.016 46.2656C137.114 46.2461 136.846 46.2215 136.345 46.1143C136.018 46.046 135.516 45.91 135.224 45.8125C134.936 45.7198 134.484 45.534 134.216 45.4023C133.948 45.2707 133.539 45.0369 133.305 44.8809C133.071 44.7249 132.725 44.4568 132.53 44.2812C132.336 44.1058 132.087 43.8377 131.979 43.6816C131.868 43.5313 131.766 43.4047 131.741 43.4033C131.722 43.4033 131.707 43.9643 131.707 45.8906H125.13L125.125 14.7031L127.979 11.46C129.55 9.67823 130.884 8.17384 130.956 8.10547C131.034 8.03719 131.142 7.99805 131.259 7.99805ZM161.326 23.1992C161.662 23.2138 162.164 23.252 162.446 23.291C162.729 23.33 163.197 23.4278 163.494 23.501C163.786 23.579 164.249 23.7257 164.517 23.8232C164.784 23.9208 165.223 24.1154 165.491 24.252C165.759 24.3934 166.164 24.6281 166.393 24.7793C166.622 24.9256 166.982 25.1887 167.196 25.3594C167.411 25.53 167.737 25.8127 167.922 25.9883C168.102 26.1638 168.424 26.5052 168.634 26.749C168.838 26.988 169.15 27.388 169.325 27.627C169.501 27.8659 169.803 28.3295 169.993 28.6514C170.188 28.9733 170.495 29.5436 170.68 29.9189C170.86 30.2944 171.118 30.8842 171.255 31.2354C171.386 31.5808 171.512 31.912 171.527 31.9668C171.552 32.0546 170.821 32.4355 164.624 35.5859C160.821 37.5189 157.706 39.1211 157.696 39.1553C157.696 39.1845 157.863 39.3312 158.062 39.4873C158.262 39.6385 158.647 39.8674 158.915 39.9941C159.183 40.1258 159.578 40.2774 159.792 40.3311C160.006 40.3847 160.396 40.4532 160.654 40.4775C160.966 40.5116 161.297 40.5116 161.604 40.4775C161.866 40.4532 162.246 40.3993 162.446 40.3555C162.646 40.3116 163.031 40.204 163.299 40.1162C163.567 40.0236 163.996 39.8534 164.249 39.7363C164.502 39.6193 164.921 39.3992 165.175 39.248C165.428 39.0969 165.818 38.8435 166.037 38.6777C166.261 38.5168 166.597 38.2341 166.787 38.0488C166.977 37.8684 167.27 37.5564 167.44 37.3564C167.606 37.1565 167.829 36.8582 167.937 36.6973C168.044 36.5363 168.214 36.2487 168.316 36.0635C168.418 35.8742 168.511 35.7192 168.521 35.708C168.531 35.7031 169.427 36.0103 170.519 36.3906C171.615 36.771 172.517 37.0879 172.531 37.0977C172.545 37.1092 172.526 37.2454 172.487 37.3955C172.453 37.5469 172.345 37.9029 172.253 38.1855C172.16 38.4685 171.951 38.9703 171.79 39.3066C171.634 39.6431 171.357 40.1361 171.182 40.4043C171.006 40.6725 170.718 41.0775 170.538 41.3066C170.363 41.5359 169.978 41.9644 169.681 42.2617C169.388 42.5543 168.959 42.9446 168.73 43.1299C168.502 43.3102 168.098 43.6077 167.83 43.7881C167.562 43.9685 167.114 44.2473 166.831 44.4033C166.548 44.5594 166.085 44.798 165.793 44.9248C165.505 45.0516 164.994 45.2561 164.648 45.373C164.307 45.4901 163.786 45.6417 163.494 45.71C163.197 45.7831 162.739 45.876 162.471 45.915C162.203 45.9589 161.58 46.0078 161.083 46.0225C160.523 46.042 159.967 46.0273 159.621 45.9932C159.314 45.959 158.793 45.8808 158.462 45.8174C158.136 45.7491 157.599 45.6073 157.268 45.4951C156.941 45.3878 156.41 45.1736 156.089 45.0176C155.768 44.8616 155.32 44.6229 155.091 44.4814C154.862 44.34 154.467 44.0662 154.214 43.876C153.961 43.6809 153.488 43.2623 153.166 42.9404C152.845 42.6186 152.382 42.0914 152.139 41.7695C151.9 41.4477 151.548 40.9303 151.363 40.623C151.178 40.3157 150.891 39.7748 150.726 39.4287C150.56 39.0777 150.326 38.5221 150.204 38.1855C150.082 37.849 149.917 37.3023 149.834 36.9658C149.751 36.6293 149.649 36.1364 149.61 35.8682C149.567 35.5998 149.522 35.0197 149.503 34.5762C149.488 34.0837 149.498 33.5621 149.532 33.2354C149.566 32.9379 149.644 32.4303 149.707 32.0986C149.775 31.7719 149.917 31.2359 150.029 30.9043C150.136 30.5776 150.374 30.0015 150.56 29.626C150.74 29.2505 151.047 28.7144 151.232 28.4316C151.422 28.1488 151.724 27.7341 151.909 27.5049C152.089 27.2806 152.44 26.8952 152.679 26.6514C152.922 26.4124 153.307 26.0613 153.531 25.8809C153.76 25.6955 154.184 25.3835 154.481 25.1885C154.774 24.9934 155.227 24.7205 155.48 24.584C155.734 24.4523 156.181 24.2371 156.479 24.1152C156.771 23.9933 157.254 23.8134 157.551 23.7207C157.843 23.6281 158.34 23.5009 158.646 23.4375C158.953 23.3692 159.426 23.2959 159.694 23.2666C159.962 23.2373 160.303 23.2041 160.449 23.1943C160.595 23.1846 160.99 23.1895 161.326 23.1992ZM86.0693 23.126C86.4687 23.1211 87.0044 23.1407 87.2627 23.1699C87.5257 23.1943 87.9596 23.2618 88.2275 23.3154C88.4954 23.3691 88.9969 23.506 89.3477 23.623C89.6935 23.7401 90.2106 23.9445 90.4932 24.0811C90.7757 24.2176 91.3016 24.5257 91.6621 24.7646C92.0225 25.0084 92.5485 25.4076 92.8311 25.6562C93.1087 25.9098 93.5131 26.3099 93.7227 26.5537C93.9321 26.7926 94.268 27.2122 94.4629 27.4805C94.6578 27.7487 94.9799 28.2318 95.1748 28.5537C95.3697 28.8756 95.6762 29.4459 95.8564 29.8213C96.0367 30.1967 96.3099 30.8208 96.4609 31.2109C96.6113 31.5995 96.7226 31.9352 96.7139 31.9668C96.7041 31.9961 93.5762 33.5961 89.7715 35.5273C85.9803 37.4492 82.8791 39.0379 82.8447 39.0723C82.8447 39.0966 83.0249 39.2482 83.2441 39.4092C83.4683 39.575 83.8434 39.8039 84.0869 39.9209C84.3256 40.0379 84.7448 40.1944 85.0127 40.2627C85.4362 40.3796 85.5975 40.3945 86.2793 40.3994C86.8539 40.3994 87.1756 40.3798 87.4971 40.3115C87.7358 40.2627 88.1648 40.1502 88.4473 40.0576C88.7299 39.9649 89.2657 39.7409 89.6406 39.5557C90.0156 39.3704 90.5171 39.0877 90.7607 38.9316C90.9995 38.7707 91.3941 38.4773 91.6377 38.2773C91.8764 38.0774 92.2466 37.7164 92.4609 37.4775C92.6703 37.2339 92.972 36.8395 93.1328 36.6006C93.2935 36.3617 93.4888 36.0345 93.708 35.6006L93.9131 35.6787C94.0316 35.7183 94.9321 36.0399 95.9248 36.3857C96.9137 36.7369 97.7324 37.0244 97.7373 37.0293C97.7373 37.0342 97.6932 37.2388 97.6299 37.4775C97.5714 37.7164 97.4353 38.1361 97.3379 38.4043C97.2356 38.6725 97.0407 39.1214 96.8994 39.4043C96.7581 39.6871 96.4653 40.1801 96.251 40.502C96.0366 40.8238 95.6565 41.3257 95.3984 41.623C95.1451 41.9205 94.7651 42.3157 94.5557 42.5059C94.3413 42.6961 93.9613 43.013 93.708 43.2129C93.4547 43.4128 93.0698 43.6857 92.8555 43.8223C92.6411 43.9637 92.222 44.2082 91.9297 44.374C91.6326 44.5398 91.1751 44.7687 90.9072 44.8857C90.6393 45.0028 90.1908 45.1788 89.9082 45.2764C89.6257 45.3787 89.1438 45.5196 88.8369 45.5977C88.53 45.6708 88.0668 45.7686 87.8135 45.8125C87.5602 45.8564 87.044 45.9151 86.6689 45.9395C86.294 45.9687 85.7436 45.9785 85.4512 45.9639C85.154 45.9492 84.6614 45.9003 84.3545 45.8613C84.0476 45.8174 83.4972 45.7098 83.1367 45.6172C82.7763 45.5245 82.2259 45.3494 81.9189 45.2275C81.612 45.1056 81.1733 44.9051 80.9443 44.7832C80.7153 44.6612 80.2863 44.403 79.9941 44.208C79.6971 44.013 79.2494 43.6765 78.9961 43.4668C78.7428 43.2523 78.3481 42.8815 78.124 42.6426C77.8999 42.4036 77.5395 41.9694 77.3154 41.6719C77.0962 41.3744 76.8034 40.9597 76.6719 40.7451C76.5403 40.5305 76.316 40.1451 76.1797 39.8916C76.0433 39.638 75.8434 39.2193 75.7314 38.9658C75.6194 38.7122 75.4343 38.2291 75.3174 37.8926C75.2053 37.5561 75.0643 37.0729 75.001 36.8193C74.9425 36.5657 74.8651 36.1803 74.8262 35.9658C74.7921 35.7511 74.7333 35.2444 74.7041 34.8447C74.6651 34.3035 74.6652 33.9327 74.7041 33.4062C74.7333 33.0161 74.8156 32.4254 74.8838 32.0889C74.952 31.7523 75.1038 31.1821 75.2256 30.8213C75.3424 30.4606 75.5805 29.8756 75.7559 29.5293C75.9264 29.1782 76.2241 28.651 76.4238 28.3584C76.6187 28.0609 76.9203 27.6462 77.0908 27.4316C77.2662 27.2171 77.6413 26.8121 77.9238 26.5293C78.2064 26.2464 78.6598 25.8513 78.9277 25.6465C79.1908 25.4417 79.5953 25.1541 79.8242 25.0078C80.0532 24.8615 80.4235 24.6424 80.6523 24.5156C80.8813 24.3937 81.2956 24.1932 81.5781 24.0762C81.8607 23.9592 82.3377 23.7791 82.6348 23.6816C82.9368 23.5841 83.3657 23.4619 83.585 23.4131C83.8091 23.3594 84.2185 23.2871 84.501 23.2432C84.7832 23.1993 85.0898 23.1602 85.1826 23.1504C85.2752 23.1406 85.6748 23.126 86.0693 23.126ZM78.3135 15.459V21.5557H71.3965V45.4512H64.7217L64.6973 21.5801L57.8047 21.5557V15.459H78.3135ZM137.114 29.335C136.779 29.3252 136.453 29.3253 136.384 29.3398C136.316 29.3496 136.106 29.3838 135.921 29.4131C135.736 29.4423 135.404 29.5255 135.189 29.5889C134.975 29.6572 134.59 29.8177 134.337 29.9492C134.084 30.076 133.69 30.3343 133.461 30.5146C133.232 30.6999 132.895 31.0315 132.715 31.2607C132.51 31.5143 132.282 31.8804 132.116 32.2119C131.975 32.5094 131.8 32.9583 131.736 33.2119C131.668 33.4655 131.59 33.8606 131.561 34.0898C131.536 34.3191 131.512 34.6702 131.512 34.8701C131.512 35.0701 131.536 35.4212 131.561 35.6504C131.585 35.8796 131.663 36.2846 131.731 36.5527C131.805 36.8452 131.96 37.2545 132.116 37.5762C132.282 37.9077 132.51 38.2689 132.715 38.5225C132.895 38.7517 133.232 39.0881 133.461 39.2686C133.69 39.4539 134.06 39.7033 134.289 39.8203C134.518 39.9373 134.903 40.0978 135.142 40.1807C135.38 40.2586 135.808 40.3614 136.091 40.4004C136.373 40.4443 136.748 40.4785 136.934 40.4785C137.114 40.4785 137.431 40.4541 137.641 40.4248C137.845 40.3955 138.191 40.3319 138.405 40.2783C138.62 40.2247 139.024 40.0682 139.307 39.9365C139.589 39.8 139.959 39.5906 140.135 39.4639C140.31 39.3371 140.612 39.069 140.812 38.8691C141.006 38.6693 141.265 38.3621 141.382 38.1865C141.494 38.0111 141.664 37.7039 141.757 37.5039C141.849 37.304 141.976 36.9959 142.029 36.8203C142.088 36.6447 142.171 36.318 142.215 36.0889C142.273 35.8061 142.298 35.4258 142.298 34.8945C142.298 34.3532 142.273 33.9869 142.22 33.6992C142.171 33.47 142.078 33.109 142.005 32.8945C141.932 32.68 141.81 32.3727 141.732 32.2119C141.65 32.051 141.489 31.778 141.377 31.6025C141.26 31.427 141.006 31.1199 140.812 30.9199C140.612 30.7152 140.31 30.4472 140.135 30.3252C139.959 30.1984 139.642 30.0126 139.428 29.9053C139.213 29.798 138.902 29.662 138.736 29.6084C138.566 29.5499 138.269 29.4716 138.079 29.4277C137.884 29.3838 137.45 29.3447 137.114 29.335ZM110.734 29.335C110.384 29.3252 109.969 29.335 109.809 29.3594C109.648 29.3887 109.341 29.4522 109.127 29.5059C108.913 29.5595 108.552 29.6857 108.323 29.7881C108.094 29.8905 107.744 30.0812 107.544 30.2129C107.344 30.3446 106.988 30.637 106.759 30.8662C106.525 31.0954 106.238 31.4417 106.121 31.627C105.999 31.817 105.844 32.0851 105.771 32.2266C105.702 32.3631 105.58 32.6702 105.497 32.9092C105.419 33.1432 105.322 33.5433 105.283 33.7969C105.239 34.0505 105.205 34.5483 105.205 34.8945C105.205 35.2601 105.239 35.723 105.283 35.9912C105.327 36.2446 105.414 36.6202 105.482 36.8203C105.546 37.0202 105.683 37.3616 105.785 37.5762C105.887 37.7907 106.107 38.1419 106.268 38.3564C106.423 38.571 106.696 38.8791 106.866 39.0352C107.037 39.1912 107.31 39.4103 107.471 39.5176C107.631 39.6297 107.928 39.7999 108.128 39.8975C108.328 39.9949 108.668 40.1319 108.883 40.2002C109.097 40.2685 109.414 40.3516 109.59 40.3857C109.765 40.4198 110.203 40.4492 110.563 40.4492C110.924 40.4492 111.387 40.4199 111.587 40.3857C111.787 40.3516 112.127 40.2685 112.342 40.2002C112.556 40.132 112.941 39.9715 113.194 39.8398C113.448 39.7131 113.833 39.4637 114.047 39.293C114.261 39.1223 114.539 38.8641 114.661 38.7178C114.783 38.5715 114.993 38.2888 115.124 38.0889C115.251 37.889 115.431 37.5476 115.523 37.333C115.611 37.1186 115.723 36.7918 115.776 36.6016C115.825 36.4163 115.894 36.0749 115.923 35.8457C115.962 35.5726 115.977 35.1527 115.957 34.626C115.942 34.1581 115.898 33.6708 115.85 33.4561C115.806 33.2562 115.699 32.905 115.616 32.6758C115.529 32.4466 115.367 32.0955 115.25 31.8955C115.138 31.6957 114.91 31.3689 114.739 31.1689C114.574 30.969 114.261 30.6609 114.042 30.4854C113.823 30.3098 113.443 30.0613 113.189 29.9346C112.936 29.8078 112.6 29.662 112.439 29.6084C112.279 29.5597 111.972 29.4765 111.758 29.4326C111.543 29.3887 111.085 29.3398 110.734 29.335ZM160.912 28.75C160.561 28.7402 160.147 28.75 159.986 28.7793C159.826 28.8037 159.529 28.8712 159.329 28.9248C159.129 28.9833 158.764 29.1154 158.525 29.2227C158.287 29.325 157.877 29.5491 157.624 29.7197C157.371 29.8903 156.976 30.2122 156.752 30.4365C156.528 30.6608 156.23 31.0217 156.084 31.2363C155.943 31.4508 155.743 31.8265 155.646 32.0654C155.548 32.3043 155.422 32.7142 155.373 32.9678C155.295 33.3482 155.28 33.5534 155.3 34.0898C155.314 34.4507 155.339 34.797 155.354 34.8604C155.368 34.9188 155.398 34.9678 155.417 34.9678C155.447 34.9648 157.432 33.9663 159.84 32.7441C162.251 31.5201 164.244 30.5 164.273 30.4805C164.302 30.4554 164.171 30.2852 163.933 30.0518C163.718 29.8373 163.378 29.5595 163.178 29.4277C162.978 29.3009 162.68 29.1396 162.52 29.0762C162.359 29.0079 162.072 28.915 161.887 28.8613C161.663 28.7979 161.331 28.7646 160.912 28.75ZM85.5967 28.6572C85.5136 28.667 85.2845 28.7012 85.085 28.7305C84.8851 28.7598 84.5344 28.8468 84.3057 28.9199C84.0767 28.9931 83.7065 29.1496 83.4775 29.2617C83.2488 29.3787 82.9421 29.549 82.7959 29.6514C82.6497 29.7489 82.3863 29.9543 82.2109 30.1006C82.0356 30.2469 81.7437 30.5492 81.5635 30.7783C81.354 31.0319 81.1295 31.393 80.9688 31.7246C80.8129 32.0367 80.662 32.4369 80.6035 32.6758C80.5499 32.905 80.4912 33.2758 80.4766 33.5049C80.4571 33.734 80.4669 34.1431 80.501 34.4209C80.5302 34.6936 80.5645 34.9183 80.5791 34.9189C80.5937 34.9189 82.5915 33.9096 85.0273 32.6709C87.4477 31.4424 89.4381 30.4266 89.4697 30.4082C89.4843 30.3936 89.4068 30.281 89.2998 30.1543C89.1927 30.0276 88.9488 29.7986 88.7637 29.6426C88.5737 29.4865 88.2083 29.2518 87.9355 29.1201C87.6679 28.9886 87.3172 28.8478 87.1562 28.8037C86.9955 28.7647 86.6635 28.706 86.4248 28.6768C86.1866 28.6524 85.9339 28.6329 85.8652 28.6377C85.797 28.6377 85.6795 28.6523 85.5967 28.6572Z" fill="#1D1D1F"/>
</svg>
